<mxfile host="65bd71144e" modified="2021-01-01T02:53:18.487Z" agent="5.0 (Windows NT 10.0; Win64; x64) AppleWebKit/537.36 (KHTML, like Gecko) Code/1.52.1 Chrome/83.0.4103.122 Electron/9.3.5 Safari/537.36" etag="BgWRau3PmciYJzVjKjgq" version="13.10.0" type="embed">
    <diagram id="N8jkDLk7Amj-sibJUGd5" name="Page-1">
        <mxGraphModel dx="1817" dy="575" grid="1" gridSize="10" guides="1" tooltips="1" connect="1" arrows="1" fold="1" page="1" pageScale="1" pageWidth="827" pageHeight="1169" math="0" shadow="0">
            <root>
                <mxCell id="0"/>
                <mxCell id="1" parent="0"/>
                <mxCell id="35" value="" style="rounded=1;whiteSpace=wrap;html=1;fillColor=#6d8764;strokeColor=#3A5431;fontColor=#ffffff;fontSize=18;" parent="1" vertex="1">
                    <mxGeometry x="-90" y="240" width="640" height="240" as="geometry"/>
                </mxCell>
                <mxCell id="36" value="&lt;font style=&quot;font-size: 18px;&quot;&gt;Tenure&lt;/font&gt;" style="rounded=1;whiteSpace=wrap;html=1;fillColor=#fa6800;strokeColor=#C73500;fontColor=#000000;verticalAlign=top;fontSize=18;" parent="1" vertex="1">
                    <mxGeometry x="750" y="240" width="140" height="240" as="geometry"/>
                </mxCell>
                <mxCell id="54" style="edgeStyle=orthogonalEdgeStyle;rounded=0;orthogonalLoop=1;jettySize=auto;html=1;exitX=1;exitY=0.25;exitDx=0;exitDy=0;entryX=-0.012;entryY=0.62;entryDx=0;entryDy=0;entryPerimeter=0;labelBackgroundColor=#141414;fillColor=#000000;fontSize=18;fontColor=#000000;strokeColor=#990000;strokeWidth=4;" parent="1" source="38" target="40" edge="1">
                    <mxGeometry relative="1" as="geometry"/>
                </mxCell>
                <mxCell id="64" style="edgeStyle=orthogonalEdgeStyle;orthogonalLoop=1;jettySize=auto;html=1;entryX=0.453;entryY=-0.007;entryDx=0;entryDy=0;entryPerimeter=0;labelBackgroundColor=#141414;strokeColor=#990000;fillColor=#CC0000;fontSize=18;fontColor=#CC0000;curved=1;strokeWidth=4;" parent="1" source="38" target="36" edge="1">
                    <mxGeometry relative="1" as="geometry">
                        <Array as="points">
                            <mxPoint x="30" y="150"/>
                            <mxPoint x="420" y="150"/>
                            <mxPoint x="420" y="130"/>
                            <mxPoint x="813" y="130"/>
                        </Array>
                    </mxGeometry>
                </mxCell>
                <mxCell id="38" value="&lt;font color=&quot;#0d0d0d&quot; style=&quot;font-size: 18px;&quot;&gt;Eden&lt;/font&gt;" style="rounded=1;whiteSpace=wrap;html=1;fillColor=#60a917;strokeColor=#2D7600;fontColor=#ffffff;verticalAlign=top;fontSize=18;" parent="1" vertex="1">
                    <mxGeometry x="-70" y="270" width="200" height="180" as="geometry"/>
                </mxCell>
                <mxCell id="57" style="edgeStyle=orthogonalEdgeStyle;rounded=0;orthogonalLoop=1;jettySize=auto;html=1;exitX=1;exitY=0.5;exitDx=0;exitDy=0;labelBackgroundColor=#141414;fillColor=#000000;fontSize=18;fontColor=#CC0000;strokeColor=#990000;strokeWidth=4;" parent="1" source="40" edge="1">
                    <mxGeometry relative="1" as="geometry">
                        <mxPoint x="740" y="310" as="targetPoint"/>
                    </mxGeometry>
                </mxCell>
                <mxCell id="40" value="Survivor" style="rounded=1;whiteSpace=wrap;html=1;fillColor=#008a00;strokeColor=#005700;fontSize=18;verticalAlign=top;fontColor=#141414;" parent="1" vertex="1">
                    <mxGeometry x="390" y="275" width="120" height="70" as="geometry"/>
                </mxCell>
                <mxCell id="61" style="edgeStyle=orthogonalEdgeStyle;rounded=0;orthogonalLoop=1;jettySize=auto;html=1;labelBackgroundColor=#141414;strokeColor=#990000;fillColor=#CC0000;fontSize=18;fontColor=#CC0000;strokeWidth=4;" parent="1" source="41" edge="1">
                    <mxGeometry relative="1" as="geometry">
                        <mxPoint x="740" y="405" as="targetPoint"/>
                    </mxGeometry>
                </mxCell>
                <mxCell id="41" value="Survivor" style="rounded=1;whiteSpace=wrap;html=1;fillColor=#008a00;strokeColor=#005700;fontSize=18;verticalAlign=top;fontColor=#141414;" parent="1" vertex="1">
                    <mxGeometry x="390" y="370" width="120" height="70" as="geometry"/>
                </mxCell>
                <mxCell id="47" value="young gc后，存活对象小于survivor可用内存空间" style="text;html=1;strokeColor=none;fillColor=none;align=center;verticalAlign=middle;whiteSpace=wrap;rounded=0;fontSize=18;fontColor=#000000;" parent="1" vertex="1">
                    <mxGeometry x="190" y="300" width="180" height="20" as="geometry"/>
                </mxCell>
                <mxCell id="58" value="对象跳过gc15，（可设置）次，晋升老年代" style="text;html=1;strokeColor=none;fillColor=none;align=center;verticalAlign=middle;whiteSpace=wrap;rounded=0;fontSize=18;fontColor=#DEDEDE;" parent="1" vertex="1">
                    <mxGeometry x="580" y="300" width="140" height="20" as="geometry"/>
                </mxCell>
                <mxCell id="62" value="survivor区中的同年龄段及年轻的对象超过区域的一半，晋升到老年代（动态年龄判断）" style="text;html=1;strokeColor=none;fillColor=none;align=center;verticalAlign=middle;whiteSpace=wrap;rounded=0;fontSize=18;fontColor=#DEDEDE;" parent="1" vertex="1">
                    <mxGeometry x="565" y="410" width="170" height="20" as="geometry"/>
                </mxCell>
                <mxCell id="65" value="存活对象，超过survivor区，直接晋升到老年代" style="text;html=1;strokeColor=none;fillColor=none;align=center;verticalAlign=middle;whiteSpace=wrap;rounded=0;fontSize=18;fontColor=#DEDEDE;" parent="1" vertex="1">
                    <mxGeometry x="370" y="100" width="140" height="20" as="geometry"/>
                </mxCell>
                <mxCell id="66" value="&lt;span class=&quot;mm-editor-clipboard&quot; style=&quot;font-size: 14px;&quot;&gt;这个年龄以及低于这个年龄的对象占据超过Survivor 50%，比如1岁，2岁，3岁的对象加起来占据了50%了，此时超过&lt;/span&gt;3岁的就会直接进老年代" style="text;html=1;strokeColor=#A50040;fillColor=#d80073;align=center;verticalAlign=middle;whiteSpace=wrap;rounded=1;fontSize=14;fontColor=#ffffff;shadow=0;sketch=0;glass=0;" vertex="1" parent="1">
                    <mxGeometry x="510" y="485" width="280" height="100" as="geometry"/>
                </mxCell>
                <mxCell id="67" value="避免对象进入老年代" style="text;html=1;strokeColor=#A50040;fillColor=#d80073;align=center;verticalAlign=middle;whiteSpace=wrap;rounded=1;shadow=0;glass=0;sketch=0;fontSize=14;fontColor=#ffffff;" vertex="1" parent="1">
                    <mxGeometry x="60" y="20" width="200" height="60" as="geometry"/>
                </mxCell>
            </root>
        </mxGraphModel>
    </diagram>
</mxfile>